<?xml version="1.0" encoding="UTF-8"?>
<svg version="1.1" xmlns="http://www.w3.org/2000/svg" width="250" height="154">
<path d="M0 0 C82.5 0 165 0 250 0 C250 50.82 250 101.64 250 154 C167.5 154 85 154 0 154 C0 103.18 0 52.36 0 0 Z " fill="#FEFEFE" transform="translate(0,0)"/>
<path d="M0 0 C0.680625 0.556875 1.36125 1.11375 2.0625 1.6875 C2.0625 2.6775 2.0625 3.6675 2.0625 4.6875 C1.0725 5.3475 0.0825 6.0075 -0.9375 6.6875 C-3.34848154 14.42801968 -4.53913087 23.88260739 -1.9375 31.6875 C2.54986237 32.12611622 2.54986237 32.12611622 6.29296875 29.859375 C6.93878906 29.06015625 7.58460938 28.2609375 8.25 27.4375 C8.90355469 26.64859375 9.55710937 25.8596875 10.23046875 25.046875 C11.41462268 23.52186653 12.56603425 21.97060378 13.67578125 20.390625 C14.13339844 19.82859375 14.59101563 19.2665625 15.0625 18.6875 C15.7225 18.6875 16.3825 18.6875 17.0625 18.6875 C15.98509372 25.12158821 11.00396022 31.3477021 6 35.328125 C2.57227293 37.22944236 0.27686746 37.68392721 -3.6875 37.75 C-7.68659485 36.44260361 -8.8195479 35.29586284 -10.9375 31.6875 C-11.78071823 29.36021769 -12.36848875 27.1057978 -12.9375 24.6875 C-13.31261719 25.21859375 -13.68773437 25.7496875 -14.07421875 26.296875 C-21.15806604 36.07508235 -21.15806604 36.07508235 -27.625 37.5 C-30.9375 37.6875 -30.9375 37.6875 -32.9375 36.6875 C-34.0625 34.625 -34.0625 34.625 -34.9375 32.6875 C-35.659375 33.30625 -36.38125 33.925 -37.125 34.5625 C-41.17191914 37.62017224 -43.99005234 38.94270174 -49.0625 38.5625 C-52.9375 37.6875 -52.9375 37.6875 -54.875 35.8125 C-58.10914751 29.34420498 -57.08550272 22.57551634 -55.9375 15.6875 C-61.86841017 21.89298935 -66.73724123 28.10518423 -71.2109375 35.4140625 C-71.78070313 36.16429687 -72.35046875 36.91453125 -72.9375 37.6875 C-73.9275 37.6875 -74.9175 37.6875 -75.9375 37.6875 C-75.9375 35.7075 -75.9375 33.7275 -75.9375 31.6875 C-76.36160156 32.08582031 -76.78570312 32.48414063 -77.22265625 32.89453125 C-82.04747119 37.25277068 -86.3180225 40.75847015 -93.125 40.625 C-96.61498452 39.46167183 -97.9491149 38.82303035 -99.9375 35.6875 C-101.84379355 26.42326966 -97.59816864 16.76554045 -92.875 8.9375 C-90.9375 6.6875 -90.9375 6.6875 -88.6875 5.8125 C-88.11 5.77125 -87.5325 5.73 -86.9375 5.6875 C-85.76171875 7.83984375 -85.76171875 7.83984375 -84.9375 10.6875 C-86.01953125 13.44140625 -86.01953125 13.44140625 -87.75 16.25 C-90.78810507 21.26252576 -92.08604586 24.58638171 -92 30.4375 C-91.98646484 31.63632813 -91.98646484 31.63632813 -91.97265625 32.859375 C-91.95525391 33.76429687 -91.95525391 33.76429687 -91.9375 34.6875 C-86.57173043 35.19852567 -84.08856683 34.07612598 -79.9375 30.6875 C-79.35742188 30.22085938 -78.77734375 29.75421875 -78.1796875 29.2734375 C-72.1579933 23.56455858 -70.77818005 16.33213152 -68.8828125 8.5390625 C-67.9375 4.6875 -67.9375 4.6875 -66.9375 2.6875 C-63.875 2.0625 -63.875 2.0625 -60.9375 1.6875 C-62.37359983 8.42612227 -64.07758287 15.05379557 -65.9375 21.6875 C-64.6158221 20.26530614 -63.2944963 18.8427836 -61.97485352 17.41870117 C-60.8647884 16.2209264 -59.75329125 15.02447725 -58.64038086 13.8293457 C-55.79782062 10.76247231 -53.07971541 7.6694123 -50.5 4.375 C-47.9375 1.6875 -47.9375 1.6875 -45.0625 1.25 C-44.36125 1.394375 -43.66 1.53875 -42.9375 1.6875 C-41.91536998 4.91341323 -41.80794201 6.36294175 -43.08203125 9.5546875 C-43.63246094 10.54726562 -44.18289062 11.53984375 -44.75 12.5625 C-48.15382591 19.00686645 -50.47031396 24.2281045 -49.9375 31.6875 C-48.7411937 33.08956859 -48.7411937 33.08956859 -45.3125 33.125 C-41.28219877 33.00330352 -38.7628753 31.88737472 -35.77734375 29.05078125 C-32.81183113 25.24157714 -30.68850213 20.98517038 -28.42089844 16.7355957 C-22.8566324 6.53562118 -12.86579042 -5.74854465 0 0 Z " fill="#333231" transform="translate(180.9375,56.3125)"/>
<path d="M0 0 C-1.2074859 17.30729788 -12.46777747 35.20413284 -24.875 46.8125 C-31.81845877 52.5242731 -38.439796 55.85995294 -47.57421875 55.43359375 C-50.93565269 54.83275773 -52.75925311 53.53951314 -55 51 C-57.49294768 46.01410463 -56.80295929 38.66697191 -55.234375 33.45703125 C-46.68767058 16.45390449 -24.71794507 6.93650517 -7.7109375 0.81640625 C-4.98591147 -0.0042428 -2.82708192 -0.16629894 0 0 Z " fill="#FCFCFC" transform="translate(61,97)"/>
<path d="M0 0 C1.4540625 0.0309375 1.4540625 0.0309375 2.9375 0.0625 C3.30437996 7.47347526 1.91019412 14.31843704 0.4375 21.5625 C0.19902344 22.76648438 -0.03945312 23.97046875 -0.28515625 25.2109375 C-0.87085809 28.16287475 -1.46347207 31.11324335 -2.0625 34.0625 C-0.4125 34.0625 1.2375 34.0625 2.9375 34.0625 C3.9275 36.0425 3.9275 36.0425 4.9375 38.0625 C1.9675 38.0625 -1.0025 38.0625 -4.0625 38.0625 C-4.41441406 39.05507812 -4.76632813 40.04765625 -5.12890625 41.0703125 C-12.82749931 62.42676032 -22.9257052 81.87842979 -43.13769531 93.82543945 C-48.52516778 96.10409746 -53.93565053 95.68758041 -59.6875 95.4375 C-60.88246094 95.41042969 -62.07742187 95.38335937 -63.30859375 95.35546875 C-66.22850152 95.28539096 -69.14450169 95.18720078 -72.0625 95.0625 C-72.1799875 91.72946997 -72.25017324 88.39698163 -72.3125 85.0625 C-72.34601563 84.12792969 -72.37953125 83.19335938 -72.4140625 82.23046875 C-72.55280648 72.31027415 -68.96765287 66.37220861 -62.31640625 59.21875 C-58.56064753 55.62571913 -54.4341329 52.85011756 -50.0625 50.0625 C-49.10730469 49.41410156 -48.15210937 48.76570313 -47.16796875 48.09765625 C-40.93762006 44.01462271 -34.73727523 40.89320688 -27.8125 38.1875 C-26.71421875 37.75824219 -26.71421875 37.75824219 -25.59375 37.3203125 C-20.50096963 35.4150997 -15.39424714 34.11411738 -10.0625 33.0625 C-8.3130382 26.66034929 -8.3130382 26.66034929 -8.0625 20.0625 C-9.7125 21.0525 -11.3625 22.0425 -13.0625 23.0625 C-12.39593095 19.83334326 -11.21822693 17.22551974 -9.6875 14.3125 C-7.46476953 9.97624836 -5.72602581 5.63719598 -4.0625 1.0625 C-3.0625 0.0625 -3.0625 0.0625 0 0 Z M-61.0625 64.0625 C-65.19237599 69.35148879 -67.23123482 73.69370227 -67.375 80.375 C-67.41238281 81.50550781 -67.44976562 82.63601562 -67.48828125 83.80078125 C-66.97855818 87.70554057 -65.79040817 89.28398129 -63.0625 92.0625 C-59.01959913 94.08395044 -54.44799662 93.63161025 -50.0625 93.0625 C-33.47086423 87.04171251 -23.90459471 72.44856152 -16.6875 57.25 C-12.49492626 47.97824393 -12.49492626 47.97824393 -11.0625 38.0625 C-28.24366535 36.78130411 -49.55557497 52.57247207 -61.0625 64.0625 Z " fill="#373635" transform="translate(72.0625,58.9375)"/>
<path d="M0 0 C2 2 2 2 2 5 C1.15115234 5.25523438 1.15115234 5.25523438 0.28515625 5.515625 C-0.44832031 5.75796875 -1.18179688 6.0003125 -1.9375 6.25 C-2.66839844 6.48203125 -3.39929688 6.7140625 -4.15234375 6.953125 C-6.1301553 7.84507181 -6.1301553 7.84507181 -6.875 9.7734375 C-7.04067252 12.72447933 -6.19445437 14.65373596 -5.0625 17.375 C-3.4815738 21.43325385 -2.52248875 24.58302096 -3 29 C-2.32453125 28.66226563 -1.6490625 28.32453125 -0.953125 27.9765625 C3.03125 25.984375 7.015625 23.9921875 11 22 C9.43216484 26.23315493 6.61693496 28.42641166 3 31 C1.39125 31.2475 1.39125 31.2475 -0.25 31.5 C-1.61125 31.7475 -1.61125 31.7475 -3 32 C-4.18391223 34.37625345 -4.18391223 34.37625345 -5 37 C-7.89861104 39.71097774 -9.9332522 40.43136021 -13.875 40.4375 C-18.66282553 40.27555884 -21.37272341 39.28182168 -25 36 C-27.71845937 32.7092334 -28.93306731 30.90359136 -29.25 26.625 C-29.1675 25.75875 -29.085 24.8925 -29 24 C-25.25 22 -25.25 22 -23 22 C-20.9154572 18.79125221 -18.97683497 15.53209366 -17.07226562 12.21484375 C-13.22179202 5.76781422 -8.38644631 -1.56026908 0 0 Z " fill="#333231" transform="translate(230,56)"/>
<path d="M0 0 C-1.43609983 6.73862227 -3.14008287 13.36629557 -5 20 C-2.525 18.515 -2.525 18.515 0 17 C-0.587515 20.85445446 -2.39754729 22.992689 -4.875 25.9375 C-7.03454258 28.51540415 -8.93035177 30.87508365 -10.5703125 33.81640625 C-11.04210937 34.53699219 -11.51390625 35.25757813 -12 36 C-12.99 36 -13.98 36 -15 36 C-15 34.02 -15 32.04 -15 30 C-15.42410156 30.39832031 -15.84820312 30.79664062 -16.28515625 31.20703125 C-21.10997119 35.56527068 -25.3805225 39.07097015 -32.1875 38.9375 C-35.67748452 37.77417183 -37.0116149 37.13553035 -39 34 C-40.90629355 24.73576966 -36.66066864 15.07804045 -31.9375 7.25 C-30 5 -30 5 -27.75 4.125 C-27.1725 4.08375 -26.595 4.0425 -26 4 C-24.82421875 6.15234375 -24.82421875 6.15234375 -24 9 C-25.08203125 11.75390625 -25.08203125 11.75390625 -26.8125 14.5625 C-29.85060507 19.57502576 -31.14854586 22.89888171 -31.0625 28.75 C-31.04896484 29.94882813 -31.04896484 29.94882813 -31.03515625 31.171875 C-31.02355469 31.77515625 -31.01195313 32.3784375 -31 33 C-25.63423043 33.51102567 -23.15106683 32.38862598 -19 29 C-18.41992188 28.53335938 -17.83984375 28.06671875 -17.2421875 27.5859375 C-11.2204933 21.87705858 -9.84068005 14.64463152 -7.9453125 6.8515625 C-7 3 -7 3 -6 1 C-3 0 -3 0 0 0 Z " fill="#353433" transform="translate(120,58)"/>
<path d="M0 0 C-8.70945326 19.1275731 -8.70945326 19.1275731 -17 26 C-19.203125 26.81640625 -19.203125 26.81640625 -21 27 C-21.33 26.67 -21.66 26.34 -22 26 C-21.81234498 15.67897409 -15.96512016 8.48849057 -8.83203125 1.49609375 C-5.71368206 -1.05044727 -3.69114137 -1.14552663 0 0 Z " fill="#FAFAFA" transform="translate(175,62)"/>
<path d="M0 0 C2.31 0 4.62 0 7 0 C7.1953125 1.92057292 7.390625 3.84114583 7.5859375 5.76171875 C8.02236781 8.53031114 8.02236781 8.53031114 10 13 C11.65 9.04 13.3 5.08 15 1 C15.66 1 16.32 1 17 1 C17.67057887 2.7902061 18.3363469 4.58221489 19 6.375 C19.556875 7.87160156 19.556875 7.87160156 20.125 9.3984375 C21 12 21 12 21 14 C21.66 14 22.32 14 23 14 C23.12375 12.948125 23.2475 11.89625 23.375 10.8125 C23.91140782 7.54041229 24.63880035 4.99463924 26 2 C25.34 2 24.68 2 24 2 C24 1.34 24 0.68 24 0 C26.31 0 28.62 0 31 0 C30.67 0.66 30.34 1.32 30 2 C29.34 2 28.68 2 28 2 C27.7525 3.27875 27.505 4.5575 27.25 5.875 C26.08835439 11.169747 24.13659734 16.03189259 22 21 C17.94764571 17.50498957 16.849194 12.90992891 15 8 C13.35 12.29 11.7 16.58 10 21 C9.34 21 8.68 21 8 21 C7.74307373 20.18994507 7.74307373 20.18994507 7.48095703 19.36352539 C6.70343748 16.92727996 5.91439031 14.49492362 5.125 12.0625 C4.85558594 11.21236328 4.58617187 10.36222656 4.30859375 9.48632812 C4.04433594 8.67744141 3.78007812 7.86855469 3.5078125 7.03515625 C3.26691895 6.2862915 3.02602539 5.53742676 2.77783203 4.76586914 C2.13741697 2.80276587 2.13741697 2.80276587 0 2 C0 1.34 0 0.68 0 0 Z " fill="#3D3C3B" transform="translate(126,108)"/>
<path d="M0 0 C4.29 0 8.58 0 13 0 C12.34 1.32 11.68 2.64 11 4 C8.525 3.01 8.525 3.01 6 2 C6 4.31 6 6.62 6 9 C7.98 9 9.96 9 12 9 C11.67 10.32 11.34 11.64 11 13 C8.525 12.01 8.525 12.01 6 11 C6 13.31 6 15.62 6 18 C7.98 18 9.96 18 12 18 C12.33 17.34 12.66 16.68 13 16 C12.67 17.65 12.34 19.3 12 21 C8.37 20.67 4.74 20.34 1 20 C1.01160156 18.72382812 1.02320313 17.44765625 1.03515625 16.1328125 C1.04453417 14.46354313 1.05363437 12.79427217 1.0625 11.125 C1.07087891 10.28324219 1.07925781 9.44148438 1.08789062 8.57421875 C1.09111328 7.76855469 1.09433594 6.96289062 1.09765625 6.1328125 C1.10289307 5.38918457 1.10812988 4.64555664 1.11352539 3.87939453 C1.11786636 1.90867432 1.11786636 1.90867432 0 0 Z " fill="#383837" transform="translate(168,108)"/>
<path d="M0 0 C0.66 0 1.32 0 2 0 C2.50806447 1.72681437 3.00610467 3.45657979 3.5 5.1875 C3.7784375 6.15042969 4.056875 7.11335938 4.34375 8.10546875 C4.96677608 10.85345876 5.12302812 13.19598416 5 16 C3.58249437 15.88490339 2.16598831 15.75746342 0.75 15.625 C-0.43335938 15.52058594 -0.43335938 15.52058594 -1.640625 15.4140625 C-4.085877 14.98492887 -5.84836903 14.21399362 -8 13 C-6.5360077 9.93124691 -4.85990364 7.09565257 -3 4.25 C-2.484375 3.45078125 -1.96875 2.6515625 -1.4375 1.828125 C-0.963125 1.22484375 -0.48875 0.6215625 0 0 Z " fill="#FBFBFB" transform="translate(216,69)"/>
<path d="M0 0 C3.96 0 7.92 0 12 0 C12 1.32 12 2.64 12 4 C11.34 4 10.68 4 10 4 C10 3.34 10 2.68 10 2 C8.35 2 6.7 2 5 2 C5 4.31 5 6.62 5 9 C7.31 9 9.62 9 12 9 C11.34 10.32 10.68 11.64 10 13 C10 12.34 10 11.68 10 11 C8.35 11 6.7 11 5 11 C5 13.31 5 15.62 5 18 C8.96 17.505 8.96 17.505 13 17 C12.67 18.32 12.34 19.64 12 21 C8.04 20.67 4.08 20.34 0 20 C0.66 19.67 1.32 19.34 2 19 C2 13.39 2 7.78 2 2 C1.34 2 0.68 2 0 2 C0 1.34 0 0.68 0 0 Z " fill="#41403F" transform="translate(101,108)"/>
<path d="M0 0 C0.8971875 0.309375 0.8971875 0.309375 1.8125 0.625 C2.66601001 3.51575713 3.05779 5.05628326 1.84375 7.87109375 C-1.7030553 12.94700644 -5.2990265 16.81199067 -10.1875 20.625 C-10.5175 19.635 -10.8475 18.645 -11.1875 17.625 C-9.97265625 15.86328125 -9.97265625 15.86328125 -8.25 13.9375 C-4.73846675 9.58029934 -4.90562446 7.07459376 -5.1875 1.625 C-2.1875 -0.375 -2.1875 -0.375 0 0 Z " fill="#353432" transform="translate(210.1875,42.375)"/>
<path d="M0 0 C2.31 0 4.62 0 7 0 C6.88576707 3.06324619 6.75902148 6.12510914 6.625 9.1875 C6.5940625 10.05181641 6.563125 10.91613281 6.53125 11.80664062 C6.14604703 20.18480529 6.14604703 20.18480529 4 24 C1.375 25.8125 1.375 25.8125 -1 27 C-0.67475342 26.44135254 -0.34950684 25.88270508 -0.0144043 25.30712891 C1.1323265 22.6990408 1.24424716 20.92320876 1.23046875 18.0859375 C1.22853516 17.16039063 1.22660156 16.23484375 1.22460938 15.28125 C1.21236328 14.3221875 1.20011719 13.363125 1.1875 12.375 C1.1865332 10.92480469 1.1865332 10.92480469 1.18554688 9.4453125 C1.34562486 4.56225146 1.34562486 4.56225146 0 0 Z " fill="#393837" transform="translate(79,108)"/>
<path d="M0 0 C2.01822917 0.06510417 4.03645833 0.13020833 6.0546875 0.1953125 C6.0546875 1.1853125 6.0546875 2.1753125 6.0546875 3.1953125 C5.3946875 3.1953125 4.7346875 3.1953125 4.0546875 3.1953125 C4.0546875 2.5353125 4.0546875 1.8753125 4.0546875 1.1953125 C2.4046875 1.5253125 0.7546875 1.8553125 -0.9453125 2.1953125 C-0.88967599 4.03000082 -0.88967599 4.03000082 0.0546875 6.1953125 C1.570625 7.3709375 1.570625 7.3709375 3.1171875 8.5703125 C6.0546875 11.1953125 6.0546875 11.1953125 6.6796875 14.3203125 C6.0546875 17.1953125 6.0546875 17.1953125 4.4296875 19.0703125 C1.48831053 20.46359633 -0.72864546 20.41463071 -3.9453125 20.1953125 C-4.2753125 18.5453125 -4.6053125 16.8953125 -4.9453125 15.1953125 C-3.9553125 15.6903125 -3.9553125 15.6903125 -2.9453125 16.1953125 C-2.9453125 16.8553125 -2.9453125 17.5153125 -2.9453125 18.1953125 C-0.9653125 18.1953125 1.0146875 18.1953125 3.0546875 18.1953125 C2.07922823 14.38215355 1.28606654 12.42118251 -1.5703125 9.6328125 C-3.9453125 7.1953125 -3.9453125 7.1953125 -4.3828125 4.5078125 C-3.82993492 1.58545956 -3.07145865 0.30837938 0 0 Z " fill="#41403F" transform="translate(226.9453125,108.8046875)"/>
<path d="M0 0 C2.31 0 4.62 0 7 0 C6.67 0.66 6.34 1.32 6 2 C5.92818179 4.71760108 5.90700494 7.40859388 5.9375 10.125 C5.94201172 10.87910156 5.94652344 11.63320312 5.95117188 12.41015625 C5.96296501 14.27347127 5.98090058 16.13674555 6 18 C9.62885324 18.15149298 9.62885324 18.15149298 13 17 C12.67 18.32 12.34 19.64 12 21 C8.37 20.67 4.74 20.34 1 20 C1.01160156 18.80761719 1.02320313 17.61523438 1.03515625 16.38671875 C1.04453592 14.82031406 1.05363593 13.25390769 1.0625 11.6875 C1.07087891 10.90181641 1.07925781 10.11613281 1.08789062 9.30664062 C1.09111328 8.54931641 1.09433594 7.79199219 1.09765625 7.01171875 C1.10289307 6.31522217 1.10812988 5.61872559 1.11352539 4.90112305 C1.06895991 2.77502032 1.06895991 2.77502032 0 0 Z " fill="#333231" transform="translate(196,108)"/>
<path d="M0 0 C4.62 0.99 9.24 1.98 14 3 C14 3.66 14 4.32 14 5 C10.86128812 6.56935594 8.46144178 6.35201103 5 6 C2.0625 3.5625 2.0625 3.5625 0 1 C0 0.67 0 0.34 0 0 Z " fill="#F4F4F4" transform="translate(206,86)"/>
<path d="M0 0 C0.66 0.33 1.32 0.66 2 1 C-0.37903765 6.03796209 -3.1269057 7.65047239 -8 10 C-8.99 10 -9.98 10 -11 10 C-11 8.68 -11 7.36 -11 6 C-10.28972656 5.65066406 -9.57945313 5.30132812 -8.84765625 4.94140625 C-7.92855469 4.48636719 -7.00945313 4.03132812 -6.0625 3.5625 C-4.68771484 2.88380859 -4.68771484 2.88380859 -3.28515625 2.19140625 C-1.09471096 1.19474606 -1.09471096 1.19474606 0 0 Z " fill="#424241" transform="translate(34,144)"/>
<path d="M0 0 C2.31 0 4.62 0 7 0 C6.67 0.66 6.34 1.32 6 2 C5.34 2 4.68 2 4 2 C3.87882813 2.58007812 3.75765625 3.16015625 3.6328125 3.7578125 C2.66264526 8.28028442 1.56602217 12.63750966 0 17 C-0.33 17 -0.66 17 -1 17 C-1.36263859 11.1977825 -0.25684543 7.36000789 2 2 C1.34 2 0.68 2 0 2 C0 1.34 0 0.68 0 0 Z " fill="#4C4B4A" transform="translate(150,108)"/>
<path d="M0 0 C2.64 0 5.28 0 8 0 C8.33 0.99 8.66 1.98 9 3 C9.66 3 10.32 3 11 3 C11 3.99 11 4.98 11 6 C9.35 6 7.7 6 6 6 C6 4.68 6 3.36 6 2 C5.01 2 4.02 2 3 2 C3 3.98 3 5.96 3 8 C2.67 8 2.34 8 2 8 C2 6.02 2 4.04 2 2 C1.34 2 0.68 2 0 2 C0 1.34 0 0.68 0 0 Z " fill="#91908F" transform="translate(237,54)"/>
<path d="M0 0 C0.33 0 0.66 0 1 0 C1 1.65 1 3.3 1 5 C-1.70879335 6.35439668 -4.00933268 6.06501451 -7 6 C-7.33 4.35 -7.66 2.7 -8 1 C-7.01 1.495 -7.01 1.495 -6 2 C-6 2.66 -6 3.32 -6 4 C-4.02 4 -2.04 4 0 4 C0 2.68 0 1.36 0 0 Z " fill="#686767" transform="translate(230,123)"/>
<path d="M0 0 C0.99 1.485 0.99 1.485 2 3 C4.05925139 3.72382467 4.05925139 3.72382467 6 4 C6.33 3.34 6.66 2.68 7 2 C6.67 3.32 6.34 4.64 6 6 C3.03 5.505 3.03 5.505 0 5 C0 3.35 0 1.7 0 0 Z " fill="#D8D7D7" transform="translate(242,56)"/>
</svg>
