<?xml version="1.0" encoding="UTF-8"?>
<svg version="1.1" xmlns="http://www.w3.org/2000/svg" width="250" height="249">
<path d="M0 0 C82.5 0 165 0 250 0 C250 82.17 250 164.34 250 249 C167.5 249 85 249 0 249 C0 166.83 0 84.66 0 0 Z " fill="#D8ECF8" transform="translate(0,0)"/>
<path d="M0 0 C3.47105846 1.97373912 5.2158175 3.3423388 7.1875 6.8125 C7.80376277 11.04930656 7.54019624 13.15935882 5.5 16.9375 C-1.79041474 26.00125887 -11.18940161 33.0582281 -21.8125 37.8125 C-22.8025 37.8125 -23.7925 37.8125 -24.8125 37.8125 C-24.8125 38.4725 -24.8125 39.1325 -24.8125 39.8125 C-17.40643372 40.33519454 -13.07232067 39.03050792 -6.6875 35.375 C-5.8627417 34.9197998 -5.0379834 34.46459961 -4.18823242 33.99560547 C-1.71743772 32.62169568 0.7358337 31.2201917 3.1875 29.8125 C3.87215332 29.42852051 4.55680664 29.04454102 5.26220703 28.64892578 C13.66565539 23.93355119 21.37316271 18.66182554 28.82299805 12.53369141 C33.52479274 8.8033718 33.52479274 8.8033718 37.0234375 8.8515625 C39.1875 9.8125 39.1875 9.8125 41.1875 11.8125 C40.84814538 15.50500146 38.80957449 18.21225589 36.8125 21.25 C34.5346476 24.73462952 32.30754587 28.22923228 30.1875 31.8125 C31.59297292 30.72840046 32.99842929 29.64427948 34.40380859 28.56005859 C35.59765689 27.64138694 36.79331351 26.72506071 37.99072266 25.81103516 C40.55929629 23.8492112 43.10316677 21.88282347 45.5859375 19.8125 C48.96515403 17.03432988 50.60697247 15.88740678 55.0625 15.3125 C58.1875 15.8125 58.1875 15.8125 60.1875 17.8125 C60.3125 21.4375 60.3125 21.4375 60.1875 24.8125 C61.37085938 24.235 62.55421875 23.6575 63.7734375 23.0625 C81.03695083 14.86525224 81.03695083 14.86525224 88.1875 16.8125 C90.1875 18.8125 90.1875 18.8125 90.3125 21.9375 C90.27125 22.88625 90.23 23.835 90.1875 24.8125 C91.445625 24.4825 92.70375 24.1525 94 23.8125 C103.51338511 21.75474585 111.51014438 22.19290061 120.1875 26.8125 C123.3125 29.0625 123.3125 29.0625 125.1875 30.8125 C116.87679929 29.07648696 116.87679929 29.07648696 113.25 27.6875 C105.776085 25.55209571 99.00885888 26.83404576 91.73046875 29.15625 C89.11038472 29.83240072 86.8808997 29.92855313 84.1875 29.8125 C83.32893345 26.3782338 83.21158417 24.19567487 84.1875 20.8125 C80.79036357 22.58084165 77.39502713 24.35261256 74 26.125 C73.04029297 26.62451172 72.08058594 27.12402344 71.09179688 27.63867188 C70.16044922 28.12529297 69.22910156 28.61191406 68.26953125 29.11328125 C67.41593018 29.55841064 66.5623291 30.00354004 65.68286133 30.4621582 C63.12640957 31.80655053 63.12640957 31.80655053 60.5456543 33.50073242 C58.1875 34.8125 58.1875 34.8125 55.375 34.5 C54.2921875 34.1596875 54.2921875 34.1596875 53.1875 33.8125 C53.32918137 32.37458484 53.47601043 30.9371763 53.625 29.5 C53.74681641 28.29923828 53.74681641 28.29923828 53.87109375 27.07421875 C54.1875 24.8125 54.1875 24.8125 55.1875 21.8125 C50.0771886 24.58330823 45.58210295 27.66701806 41.0625 31.3125 C40.46824219 31.78558594 39.87398438 32.25867188 39.26171875 32.74609375 C38.67777344 33.21144531 38.09382813 33.67679688 37.4921875 34.15625 C36.92878662 34.60516602 36.36538574 35.05408203 35.78491211 35.51660156 C34.33141217 36.69575145 32.91162751 37.91615748 31.49609375 39.140625 C28.34348133 41.42373518 25.98005687 41.10995544 22.1875 40.8125 C20.8816666 36.89121478 21.80719644 34.83418909 23.58789062 31.12890625 C23.93013672 30.44699219 24.27238281 29.76507813 24.625 29.0625 C24.96337891 28.36511719 25.30175781 27.66773437 25.65039062 26.94921875 C26.48556458 25.23181879 27.33515424 23.52144262 28.1875 21.8125 C27.49825439 22.23547363 26.80900879 22.65844727 26.09887695 23.09423828 C23.47614571 24.69902648 20.8495715 26.29729276 18.22045898 27.89160156 C16.54964907 28.90731742 14.88315139 29.93011616 13.21679688 30.953125 C6.60756841 34.95396359 0.00731866 38.44412145 -7.04614258 41.58154297 C-9.7357 42.73649648 -9.7357 42.73649648 -11.9362793 43.95751953 C-15.1166424 45.40678844 -18.41631091 45.2630835 -21.8125 44.8125 C-24.8125 43.4375 -24.8125 43.4375 -26.8125 41.8125 C-26.8125 41.1525 -26.8125 40.4925 -26.8125 39.8125 C-27.75351563 40.16183594 -28.69453125 40.51117188 -29.6640625 40.87109375 C-30.92177474 41.33100345 -32.17959293 41.79062347 -33.4375 42.25 C-34.66726562 42.70246094 -35.89703125 43.15492188 -37.1640625 43.62109375 C-42.05496612 45.21823037 -46.55355367 45.95278707 -51.6875 45.875 C-52.46867187 45.86597656 -53.24984375 45.85695312 -54.0546875 45.84765625 C-54.63476562 45.83605469 -55.21484375 45.82445312 -55.8125 45.8125 C-56.07289062 46.68261719 -56.33328125 47.55273438 -56.6015625 48.44921875 C-57.81853873 51.82927208 -59.28314701 54.58551957 -61.1875 57.625 C-61.77273437 58.58019531 -62.35796875 59.53539062 -62.9609375 60.51953125 C-64.8125 62.8125 -64.8125 62.8125 -67.0390625 63.63671875 C-67.62429687 63.69472656 -68.20953125 63.75273437 -68.8125 63.8125 C-69.91064453 62.0456543 -69.91064453 62.0456543 -70.8125 59.8125 C-70.31201172 57.97583008 -70.31201172 57.97583008 -69.2421875 56.08203125 C-68.84628418 55.36982422 -68.45038086 54.65761719 -68.04248047 53.92382812 C-67.59533691 53.16521484 -67.14819336 52.40660156 -66.6875 51.625 C-66.23391113 50.83416016 -65.78032227 50.04332031 -65.31298828 49.22851562 C-58.19405953 37.0550266 -49.84136165 25.63462286 -40.8125 14.8125 C-40.28527344 14.17441406 -39.75804688 13.53632812 -39.21484375 12.87890625 C-38.08681972 11.51836474 -36.95091065 10.16436265 -35.8125 8.8125 C-33.3375 9.3075 -33.3375 9.3075 -30.8125 9.8125 C-31.20303558 15.08973721 -34.09169185 18.01248925 -37.375 21.875 C-42.66101992 28.26583288 -47.37145746 34.79826516 -51.8125 41.8125 C-51.28293701 41.63074219 -50.75337402 41.44898438 -50.20776367 41.26171875 C-47.80675985 40.44059281 -45.4034359 39.62647829 -43 38.8125 C-41.74993164 38.38324219 -41.74993164 38.38324219 -40.47460938 37.9453125 C-39.67216797 37.67460937 -38.86972656 37.40390625 -38.04296875 37.125 C-36.93538208 36.74794922 -36.93538208 36.74794922 -35.80541992 36.36328125 C-33.8125 35.8125 -33.8125 35.8125 -30.8125 35.8125 C-30.96847656 35.28914063 -31.12445313 34.76578125 -31.28515625 34.2265625 C-32.90623981 26.80560221 -33.07895055 19.01316345 -29.25 12.3125 C-22.0380116 1.97814485 -12.58591823 -3.92020404 0 0 Z " fill="#F67918" transform="translate(95.8125,92.1875)"/>
<path d="M0 0 C2.1875 0.9375 2.1875 0.9375 4.1875 2.9375 C3.84814538 6.63000146 1.80957449 9.33725589 -0.1875 12.375 C-2.4653524 15.85962952 -4.69245413 19.35423228 -6.8125 22.9375 C-5.40702708 21.85340046 -4.00157071 20.76927948 -2.59619141 19.68505859 C-1.40234311 18.76638694 -0.20668649 17.85006071 0.99072266 16.93603516 C3.55929629 14.9742112 6.10316677 13.00782347 8.5859375 10.9375 C11.96515403 8.15932988 13.60697247 7.01240678 18.0625 6.4375 C21.1875 6.9375 21.1875 6.9375 23.1875 8.9375 C23.3125 12.5625 23.3125 12.5625 23.1875 15.9375 C24.37085938 15.36 25.55421875 14.7825 26.7734375 14.1875 C44.03695083 5.99025224 44.03695083 5.99025224 51.1875 7.9375 C53.1875 9.9375 53.1875 9.9375 53.3125 13.0625 C53.27125 14.01125 53.23 14.96 53.1875 15.9375 C54.445625 15.6075 55.70375 15.2775 57 14.9375 C66.51338511 12.87974585 74.51014438 13.31790061 83.1875 17.9375 C86.3125 20.1875 86.3125 20.1875 88.1875 21.9375 C79.87679929 20.20148696 79.87679929 20.20148696 76.25 18.8125 C68.776085 16.67709571 62.00885888 17.95904576 54.73046875 20.28125 C52.11038472 20.95740072 49.8808997 21.05355313 47.1875 20.9375 C46.32893345 17.5032338 46.21158417 15.32067487 47.1875 11.9375 C43.79036357 13.70584165 40.39502713 15.47761256 37 17.25 C36.04029297 17.74951172 35.08058594 18.24902344 34.09179688 18.76367188 C33.16044922 19.25029297 32.22910156 19.73691406 31.26953125 20.23828125 C29.98912964 20.90597534 29.98912964 20.90597534 28.68286133 21.5871582 C26.12640957 22.93155053 26.12640957 22.93155053 23.5456543 24.62573242 C21.1875 25.9375 21.1875 25.9375 18.375 25.625 C17.653125 25.398125 16.93125 25.17125 16.1875 24.9375 C16.32918137 23.49958484 16.47601043 22.0621763 16.625 20.625 C16.70621094 19.82449219 16.78742188 19.02398437 16.87109375 18.19921875 C17.1875 15.9375 17.1875 15.9375 18.1875 12.9375 C13.0771886 15.70830823 8.58210295 18.79201806 4.0625 22.4375 C3.46824219 22.91058594 2.87398437 23.38367188 2.26171875 23.87109375 C1.67777344 24.33644531 1.09382813 24.80179688 0.4921875 25.28125 C-0.07121338 25.73016602 -0.63461426 26.17908203 -1.21508789 26.64160156 C-2.66858783 27.82075145 -4.08837249 29.04115748 -5.50390625 30.265625 C-8.65651867 32.54873518 -11.01994313 32.23495544 -14.8125 31.9375 C-15.4921875 30.30859375 -15.4921875 30.30859375 -15.8125 27.9375 C-14.6328125 25.09765625 -14.6328125 25.09765625 -12.9375 22 C-9.56950827 15.80446173 -8.3533579 11.90895672 -9.8125 4.9375 C-3.7831411 -0.0840698 -3.7831411 -0.0840698 0 0 Z " fill="#0FB9D8" transform="translate(132.8125,101.0625)"/>
<path d="M0 0 C2.475 0.495 2.475 0.495 5 1 C4.60946442 6.27723721 1.72080815 9.19998925 -1.5625 13.0625 C-6.84851992 19.45333288 -11.55895746 25.98576516 -16 33 C-14.75863281 32.55527344 -13.51726563 32.11054688 -12.23828125 31.65234375 C-10.59657605 31.08009222 -8.95463648 30.50851276 -7.3125 29.9375 C-6.49587891 29.64294922 -5.67925781 29.34839844 -4.83789062 29.04492188 C2.67644333 26.45901748 2.67644333 26.45901748 7 28 C7.495 29.485 7.495 29.485 8 31 C-1.25162677 35.60346646 -9.69124691 37.33254042 -20 37 C-20.26039062 37.87011719 -20.52078125 38.74023438 -20.7890625 39.63671875 C-22.00603873 43.01677208 -23.47064701 45.77301957 -25.375 48.8125 C-25.96023437 49.76769531 -26.54546875 50.72289062 -27.1484375 51.70703125 C-29 54 -29 54 -31.2265625 54.82421875 C-31.81179687 54.88222656 -32.39703125 54.94023437 -33 55 C-34.09814453 53.2331543 -34.09814453 53.2331543 -35 51 C-34.49951172 49.16333008 -34.49951172 49.16333008 -33.4296875 47.26953125 C-33.03378418 46.55732422 -32.63788086 45.84511719 -32.22998047 45.11132812 C-31.78283691 44.35271484 -31.33569336 43.59410156 -30.875 42.8125 C-30.42141113 42.02166016 -29.96782227 41.23082031 -29.50048828 40.41601562 C-22.38155953 28.2425266 -14.02886165 16.82212286 -5 6 C-4.47277344 5.36191406 -3.94554688 4.72382812 -3.40234375 4.06640625 C-2.27431972 2.70586474 -1.13841065 1.35186265 0 0 Z " fill="#C55EA2" transform="translate(60,101)"/>
<path d="M0 0 C1.59134766 -0.02126953 1.59134766 -0.02126953 3.21484375 -0.04296875 C6.0625 0.1875 6.0625 0.1875 9.0625 2.1875 C9.0625 6.52393163 7.8144666 8.87371738 4.9375 11.9375 C-2.80742988 19.20624974 -12.07573341 25.26563916 -21.9375 29.1875 C-22.68359058 21.39499836 -21.50434323 15.62926281 -16.9375 9.1875 C-11.58099528 3.58164075 -7.86703498 0.047679 0 0 Z " fill="#C7E3F6" transform="translate(89.9375,96.8125)"/>
<path d="M0 0 C2 2 2 2 2.125 5.125 C2.08375 6.07375 2.0425 7.0225 2 8 C3.258125 7.67 4.51625 7.34 5.8125 7 C15.32588511 4.94224585 23.32264438 5.38040061 32 10 C35.125 12.25 35.125 12.25 37 14 C28.68929929 12.26398696 28.68929929 12.26398696 25.0625 10.875 C17.588585 8.73959571 10.82135888 10.02154576 3.54296875 12.34375 C0.92288472 13.01990072 -1.3066003 13.11605313 -4 13 C-4.85856655 9.5657338 -4.97591583 7.38317487 -4 4 C-7.39713643 5.76834165 -10.79247287 7.54011256 -14.1875 9.3125 C-15.14720703 9.81201172 -16.10691406 10.31152344 -17.09570312 10.82617188 C-18.02705078 11.31279297 -18.95839844 11.79941406 -19.91796875 12.30078125 C-20.77156982 12.74591064 -21.6251709 13.19104004 -22.50463867 13.6496582 C-25.06109043 14.99405053 -25.06109043 14.99405053 -27.6418457 16.68823242 C-30 18 -30 18 -32.8125 17.6875 C-33.534375 17.460625 -34.25625 17.23375 -35 17 C-34.67 14.03 -34.34 11.06 -34 8 C-32.2365625 7.9690625 -32.2365625 7.9690625 -30.4375 7.9375 C-25.6376905 7.45297664 -21.8076371 5.59098492 -17.5625 3.4375 C-11.79425576 0.54616397 -6.50342632 -1.54713089 0 0 Z " fill="#782772" transform="translate(184,109)"/>
<path d="M0 0 C6.05310594 -0.37059832 10.57892935 -0.08256959 16 3 C19.05583639 5.82077205 19.89933764 7.3079463 20.5 11.4375 C19.267302 20.22047325 11.42852007 26.00798453 4.7578125 31.15234375 C-0.51227278 34.68315159 -6.26465694 37.31589208 -12 40 C-12.99 39.01 -13.98 38.02 -15 37 C-13.65297873 32.95893619 -11.12818268 32.18361457 -7.5625 30.3125 C1.00353019 25.61545829 9.41189716 20.19588417 15 12 C15 10.68 15 9.36 15 8 C14.34 7.67 13.68 7.34 13 7 C13 6.34 13 5.68 13 5 C11.02 4.34 9.04 3.68 7 3 C7 2.34 7 1.68 7 1 C4.69 1 2.38 1 0 1 C0 0.67 0 0.34 0 0 Z " fill="#D40B59" transform="translate(83,91)"/>
<path d="M0 0 C0 0.99 0 1.98 0 3 C-0.99 3 -1.98 3 -3 3 C-3 5.64 -3 8.28 -3 11 C-3.66 11 -4.32 11 -5 11 C-5.33 10.34 -5.66 9.68 -6 9 C-6.33 9.66 -6.66 10.32 -7 11 C-7.99 11 -8.98 11 -10 11 C-10 10.34 -10 9.68 -10 9 C-11.32 9 -12.64 9 -14 9 C-14 9.66 -14 10.32 -14 11 C-14.99 11 -15.98 11 -17 11 C-17 10.34 -17 9.68 -17 9 C-17.66 9 -18.32 9 -19 9 C-19 9.66 -19 10.32 -19 11 C-23.44936709 11.36075949 -23.44936709 11.36075949 -25.8125 9.8125 C-27.40199375 7.3864306 -27.36487512 5.84602594 -27 3 C-24.09554396 0.09554396 -20.92237292 0.34133627 -17 0 C-15.91847656 -0.10441406 -14.83695313 -0.20882812 -13.72265625 -0.31640625 C-3.70883935 -1.20627299 -3.70883935 -1.20627299 0 0 Z " fill="#BFE2F5" transform="translate(177,142)"/>
<path d="M0 0 C2 3 2 3 3 6 C-1.62980289 9.06001035 -6.3002998 12.04856634 -11 15 C-11.68916504 15.43747559 -12.37833008 15.87495117 -13.08837891 16.32568359 C-15.14784149 17.61917062 -17.22598175 18.87572958 -19.3125 20.125 C-19.94478516 20.52710693 -20.57707031 20.92921387 -21.22851562 21.34350586 C-26.36402566 24.34565052 -30.24539799 24.20270107 -36 23 C-32.20538298 19.87797383 -27.93476872 17.747175 -23.625 15.4375 C-15.26513641 10.89072833 -7.58522512 5.73160097 0 0 Z " fill="#BEBB10" transform="translate(122,107)"/>
<path d="M0 0 C2.475 0.495 2.475 0.495 5 1 C4.64586336 6.40579167 1.45993262 9.59104043 -1.875 13.5625 C-2.95609949 14.87599737 -4.03683935 16.18979084 -5.1171875 17.50390625 C-5.62693115 18.11347168 -6.1366748 18.72303711 -6.66186523 19.35107422 C-8.10044732 21.07441112 -8.10044732 21.07441112 -9.58984375 23.35546875 C-11.41944891 25.48916341 -13.01037489 25.97402171 -15.6875 26.75 C-16.49574219 26.99234375 -17.30398437 27.2346875 -18.13671875 27.484375 C-18.75160156 27.65453125 -19.36648437 27.8246875 -20 28 C-18.3994074 22.98350855 -15.40981666 19.2481754 -12.25 15.125 C-11.73695312 14.44308594 -11.22390625 13.76117188 -10.6953125 13.05859375 C-7.28555737 8.56080118 -3.70946008 4.25366231 0 0 Z " fill="#3945A6" transform="translate(60,101)"/>
<path d="M0 0 C2.1875 0.9375 2.1875 0.9375 4.1875 2.9375 C3.84364595 6.65439855 1.78385488 9.47653941 -0.1875 12.5625 C-1.09628906 14.00496094 -1.09628906 14.00496094 -2.0234375 15.4765625 C-3.8125 17.9375 -3.8125 17.9375 -6.8125 19.9375 C-8.8125 17.9375 -8.8125 17.9375 -8.875 14.6875 C-8.854375 13.45 -8.83375 12.2125 -8.8125 10.9375 C-9.10435063 8.9310269 -9.42419599 6.92755807 -9.8125 4.9375 C-3.7831411 -0.0840698 -3.7831411 -0.0840698 0 0 Z " fill="#07B91F" transform="translate(132.8125,101.0625)"/>
<path d="M0 0 C1.32 1.65 2.64 3.3 4 5 C3.67 5.66 3.34 6.32 3 7 C3.48210937 6.6390625 3.96421875 6.278125 4.4609375 5.90625 C5.09257812 5.4421875 5.72421875 4.978125 6.375 4.5 C7.00148437 4.0359375 7.62796875 3.571875 8.2734375 3.09375 C10 2 10 2 12 2 C12.08161586 5.99917729 11.89996204 8.00175517 9.17578125 11.0234375 C2.66785714 16.4375 2.66785714 16.4375 -2.0625 16.4375 C-3.031875 16.293125 -4.00125 16.14875 -5 16 C-6.25348607 13.04893565 -6.01044806 12.02593537 -4.78515625 8.984375 C-4.21667969 7.91703125 -3.64820312 6.8496875 -3.0625 5.75 C-2.49660156 4.67234375 -1.93070312 3.5946875 -1.34765625 2.484375 C-0.90292969 1.66453125 -0.45820312 0.8446875 0 0 Z " fill="#06998B" transform="translate(123,117)"/>
<path d="M0 0 C1.65 0 3.3 0 5 0 C5 1.32 5 2.64 5 4 C5.59425781 3.855625 6.18851563 3.71125 6.80078125 3.5625 C17.35268917 1.19939776 26.24721637 0.80787059 36 6 C39.125 8.25 39.125 8.25 41 10 C32.68929929 8.26398696 32.68929929 8.26398696 29.0625 6.875 C21.588585 4.73959571 14.82135888 6.02154576 7.54296875 8.34375 C4.92288472 9.01990072 2.6933997 9.11605313 0 9 C-0.84454356 5.62182575 -1.10844919 3.32534757 0 0 Z " fill="#C5450E" transform="translate(180,113)"/>
<path d="M0 0 C0.79921875 0.01804687 1.5984375 0.03609375 2.421875 0.0546875 C3.02515625 0.07789062 3.6284375 0.10109375 4.25 0.125 C4.25 0.785 4.25 1.445 4.25 2.125 C6.23 2.785 8.21 3.445 10.25 4.125 C10.25 4.455 10.25 4.785 10.25 5.125 C9.4765625 5.12757812 8.703125 5.13015625 7.90625 5.1328125 C-1.69940475 5.4894581 -6.1957575 8.47114895 -12.75 15.125 C-14.07 14.465 -15.39 13.805 -16.75 13.125 C-15.47418171 7.63898137 -13.27843832 5.38547559 -8.75 2.125 C-5.69456774 0.30179968 -3.54591906 -0.10429174 0 0 Z " fill="#DF5609" transform="translate(85.75,91.875)"/>
<path d="M0 0 C0.33 0.66 0.66 1.32 1 2 C1.66 2 2.32 2 3 2 C4.234375 3.5546875 4.234375 3.5546875 5 6 C3.86544859 8.58558295 2.72776383 10.75177001 1.25 13.125 C0.87617187 13.75792969 0.50234375 14.39085937 0.1171875 15.04296875 C-1.42046385 17.61117367 -2.87663664 19.87663664 -5 22 C-7.0625 21.8125 -7.0625 21.8125 -9 21 C-10 18 -10 18 -9.19555664 16.00708008 C-8.55928345 14.89949341 -8.55928345 14.89949341 -7.91015625 13.76953125 C-7.45576172 12.96708984 -7.00136719 12.16464844 -6.53320312 11.33789062 C-6.04787109 10.50451172 -5.56253906 9.67113281 -5.0625 8.8125 C-4.58103516 7.96751953 -4.09957031 7.12253906 -3.60351562 6.25195312 C-2.4112945 4.16261511 -1.20990182 2.07913325 0 0 Z " fill="#AE7EC5" transform="translate(35,134)"/>
<path d="M0 0 C0.99 0 1.98 0 3 0 C3 0.66 3 1.32 3 2 C3.66 1.67 4.32 1.34 5 1 C7.3329866 0.95977609 9.66706666 0.95679753 12 1 C12 1.66 12 2.32 12 3 C10.02 3 8.04 3 6 3 C6 3.66 6 4.32 6 5 C6.763125 4.938125 7.52625 4.87625 8.3125 4.8125 C11 5 11 5 12.8125 6.5 C13.204375 6.995 13.59625 7.49 14 8 C13.01 9.485 13.01 9.485 12 11 C7.63037156 11.28653301 3.18470474 11.43475591 -1 10 C-2.8125 7.9375 -2.8125 7.9375 -4 6 C-4.66 7.32 -5.32 8.64 -6 10 C-6 7.36 -6 4.72 -6 2 C-3.525 3.485 -3.525 3.485 -1 5 C-0.67 3.35 -0.34 1.7 0 0 Z " fill="#C0DBED" transform="translate(202,142)"/>
<path d="M0 0 C2 2 2 2 2.25 4.5 C2 7 2 7 0 9 C-1.97632647 9.03187623 -3.95499088 9.0590023 -5.9296875 8.97265625 C-8.35234546 8.92538051 -8.35234546 8.92538051 -12 10 C-12 6.7 -12 3.4 -12 0 C-7.74239209 -1.16116579 -4.30779205 -0.89407005 0 0 Z " fill="#898F93" transform="translate(191,143)"/>
<path d="M0 0 C0.66 0.33 1.32 0.66 2 1 C0.68 2.32 -0.64 3.64 -2 5 C-1.01 5 -0.02 5 1 5 C1.66 5.33 2.32 5.66 3 6 C2.67 7.32 2.34 8.64 2 10 C4.31 10.33 6.62 10.66 9 11 C9.33 12.32 9.66 13.64 10 15 C8.41870971 15.22331199 6.83478911 15.42804644 5.25 15.625 C4.36828125 15.74101563 3.4865625 15.85703125 2.578125 15.9765625 C-0.22859878 16.00207817 -1.63384866 15.44843844 -4 14 C-4.99 14.66 -5.98 15.32 -7 16 C-7 14.35 -7 12.7 -7 11 C-5.68 11 -4.36 11 -3 11 C-4.98 10.01 -6.96 9.02 -9 8 C-9 7.01 -9 6.02 -9 5 C-8.43410156 4.72285156 -7.86820313 4.44570312 -7.28515625 4.16015625 C-6.55167969 3.79792969 -5.81820312 3.43570313 -5.0625 3.0625 C-3.96615234 2.52302734 -3.96615234 2.52302734 -2.84765625 1.97265625 C-1.03750973 1.13628173 -1.03750973 1.13628173 0 0 Z " fill="#BFE1F4" transform="translate(220,110)"/>
<path d="M0 0 C0.94875 0.04125 1.8975 0.0825 2.875 0.125 C3.875 3.125 3.875 3.125 3.875 6.125 C6.98832248 5.45631686 6.98832248 5.45631686 8.0625 3.0625 C8.330625 2.423125 8.59875 1.78375 8.875 1.125 C9.535 1.125 10.195 1.125 10.875 1.125 C11.94275224 3.08966413 12.94053465 5.09355359 13.875 7.125 C13.545 7.785 13.215 8.445 12.875 9.125 C10.4 8.63 10.4 8.63 7.875 8.125 C7.875 8.785 7.875 9.445 7.875 10.125 C6.885 10.125 5.895 10.125 4.875 10.125 C4.875 9.465 4.875 8.805 4.875 8.125 C4.215 8.125 3.555 8.125 2.875 8.125 C2.875 8.785 2.875 9.445 2.875 10.125 C-1.57436709 10.48575949 -1.57436709 10.48575949 -3.9375 8.9375 C-5.52699375 6.5114306 -5.48987512 4.97102594 -5.125 2.125 C-3.125 0.125 -3.125 0.125 0 0 Z " fill="#BBDBEE" transform="translate(155.125,142.875)"/>
<path d="M0 0 C2.31 0 4.62 0 7 0 C7 3.3 7 6.6 7 10 C5.68 10.33 4.36 10.66 3 11 C1.078125 9.78515625 1.078125 9.78515625 -0.75 8.0625 C-1.36359375 7.49660156 -1.9771875 6.93070313 -2.609375 6.34765625 C-3.06828125 5.90292969 -3.5271875 5.45820313 -4 5 C-4 6.32 -4 7.64 -4 9 C-4.66 9 -5.32 9 -6 9 C-6 6.36 -6 3.72 -6 1 C-2.125 2.875 -2.125 2.875 -1 4 C-0.67 2.68 -0.34 1.36 0 0 Z " fill="#AFC8D5" transform="translate(141,143)"/>
<path d="M0 0 C0.33 0.66 0.66 1.32 1 2 C0.01 3.485 0.01 3.485 -1 5 C-1 6.32 -1 7.64 -1 9 C-6.445 11.475 -6.445 11.475 -12 14 C-12.99 13.01 -13.98 12.02 -15 11 C-13.59980125 6.79940376 -10.63174123 5.80948475 -6.9375 3.8125 C-6.27427734 3.44447266 -5.61105469 3.07644531 -4.92773438 2.69726562 C-3.28972543 1.78987938 -1.64543779 0.89384427 0 0 Z " fill="#C61368" transform="translate(83,117)"/>
<path d="M0 0 C1.32 0 2.64 0 4 0 C2.19752161 3.68879299 0.1723788 7.22650083 -1.87890625 10.78125 C-3.07696424 12.92231645 -3.07696424 12.92231645 -3.46875 15.1484375 C-4.38191197 18.33107554 -7.29620023 19.34461239 -10 21 C-10.66 21.66 -11.32 22.32 -12 23 C-12.33 22.01 -12.66 21.02 -13 20 C-11.12890625 17.44140625 -11.12890625 17.44140625 -8.5625 14.5625 C-4.65080157 10.45507385 -4.65080157 10.45507385 -4 5 C-7.68754757 5.49831724 -9.60490662 6.10067643 -12 9 C-11.125 4.125 -11.125 4.125 -10 3 C-3.47457627 2.76271186 -3.47457627 2.76271186 -1 4 C-0.67 2.68 -0.34 1.36 0 0 Z " fill="#BAE0F4" transform="translate(68,97)"/>
<path d="M0 0 C2 2 2 2 2.125 5.125 C2.08375 6.07375 2.0425 7.0225 2 8 C1.67 6.68 1.34 5.36 1 4 C-5.46712188 5.16194152 -11.09622349 7.1248748 -17 10 C-16.7215625 8.824375 -16.7215625 8.824375 -16.4375 7.625 C-15.74037734 5.02910225 -15.74037734 5.02910225 -17 3 C-11.38477834 0.07031913 -6.34042864 -0.89252835 0 0 Z " fill="#CE147D" transform="translate(184,109)"/>
<path d="M0 0 C6.05310594 -0.37059832 10.57892935 -0.08256959 16 3 C19.124973 5.88459047 19.91635007 7.31885054 20.4375 11.5625 C19.98985972 15.07967359 19.41561488 16.4837345 17 19 C17 18.01 17 17.02 17 16 C15.68 15.67 14.36 15.34 13 15 C13.66 14.01 14.32 13.02 15 12 C15 10.68 15 9.36 15 8 C14.34 7.67 13.68 7.34 13 7 C13 6.34 13 5.68 13 5 C11.02 4.34 9.04 3.68 7 3 C7 2.34 7 1.68 7 1 C4.69 1 2.38 1 0 1 C0 0.67 0 0.34 0 0 Z " fill="#E20D46" transform="translate(83,91)"/>
<path d="M0 0 C0.79921875 0.11085937 1.5984375 0.22171875 2.421875 0.3359375 C3.02515625 0.43132812 3.6284375 0.52671875 4.25 0.625 C-0.18751102 4.35250926 -5.03415018 6.7685701 -10.875 7 C-14.8021107 6.61995703 -16.72233458 6.1021808 -19.75 3.625 C-20.08 2.635 -20.41 1.645 -20.75 0.625 C-20.069375 0.79 -19.38875 0.955 -18.6875 1.125 C-12.60156847 2.19230941 -12.60156847 2.19230941 -6.83203125 0.58984375 C-4.26287253 -0.600742 -2.77631275 -0.40828129 0 0 Z " fill="#FCB50B" transform="translate(88.75,130.375)"/>
<path d="M0 0 C2.625 0.375 2.625 0.375 5 1 C4.46719784 5.22489602 3.12321801 7.54080716 0.4375 10.8125 C-0.20316406 11.60269531 -0.84382813 12.39289063 -1.50390625 13.20703125 C-1.99761719 13.79871094 -2.49132813 14.39039062 -3 15 C-3.33 13.68 -3.66 12.36 -4 11 C-5.32 10.67 -6.64 10.34 -8 10 C-7.04367001 8.70684939 -6.08486149 7.41553147 -5.125 6.125 C-4.59132812 5.40570313 -4.05765625 4.68640625 -3.5078125 3.9453125 C-2 2 -2 2 0 0 Z " fill="#0F62B3" transform="translate(60,101)"/>
<path d="M0 0 C2 3 2 3 3 6 C1.56839732 7.00842453 0.12948547 8.00647891 -1.3125 9 C-2.51326172 9.8353125 -2.51326172 9.8353125 -3.73828125 10.6875 C-6 12 -6 12 -9 12 C-9.28125 9.73828125 -9.28125 9.73828125 -9 7 C-7.03125 4.98046875 -7.03125 4.98046875 -4.5 3.1875 C-3.6646875 2.58292969 -2.829375 1.97835937 -1.96875 1.35546875 C-1.3190625 0.90816406 -0.669375 0.46085937 0 0 Z " fill="#4EBA0A" transform="translate(122,107)"/>
<path d="M0 0 C0.33 0.99 0.66 1.98 1 3 C-2.63 5.97 -6.26 8.94 -10 12 C-10.66 11.34 -11.32 10.68 -12 10 C-10.90769173 4.78119383 -8.92827383 2.7333597 -4.75390625 -0.21484375 C-3 -1 -3 -1 0 0 Z " fill="#0FAAB6" transform="translate(145,113)"/>
<path d="M0 0 C0.33 1.98 0.66 3.96 1 6 C-0.59910868 7.00806851 -2.20448262 8.00620385 -3.8125 9 C-5.15248047 9.8353125 -5.15248047 9.8353125 -6.51953125 10.6875 C-9 12 -9 12 -12 12 C-11.42488012 8.54928071 -10.62155636 6.51295729 -7.8984375 4.265625 C-1.5 0 -1.5 0 0 0 Z " fill="#85BB12" transform="translate(113,114)"/>
<path d="M0 0 C-0.875 4.875 -0.875 4.875 -2 6 C-2.94875 5.95875 -3.8975 5.9175 -4.875 5.875 C-7.99284776 5.69037283 -7.99284776 5.69037283 -9.875 7.5 C-10.24625 7.995 -10.6175 8.49 -11 9 C-11.99 7.35 -12.98 5.7 -14 4 C-9.86300566 -0.13699434 -5.66047258 -0.22197932 0 0 Z " fill="#C8DFF2" transform="translate(113,90)"/>
<path d="M0 0 C1 1 1 1 1.1875 3.4375 C1 6 1 6 -1 8 C-3.5 8.25 -3.5 8.25 -6 8 C-6.66 7.34 -7.32 6.68 -8 6 C-7.75 2.9375 -7.75 2.9375 -7 0 C-4.31633121 -1.3418344 -2.84719317 -0.73004953 0 0 Z " fill="#9FA2A6" transform="translate(97,144)"/>
<path d="M0 0 C-1.24221048 3.43996749 -2.34557411 6.43710604 -5 9 C-8.6875 9.75 -8.6875 9.75 -12 10 C-11.64426042 7.36752711 -11.34776706 5.46948554 -9.75 3.3125 C-6.62867563 0.97150672 -3.89206561 0 0 0 Z " fill="#8C5EB9" transform="translate(48,126)"/>
<path d="M0 0 C0.66 0.66 1.32 1.32 2 2 C-0.65718074 4.65718074 -2.55791513 4.5939467 -6.25 5.125 C-7.36890625 5.29257813 -8.4878125 5.46015625 -9.640625 5.6328125 C-12.79447131 5.97753524 -15.83085084 6.06722438 -19 6 C-18.67 5.01 -18.34 4.02 -18 3 C-14.33606256 2.31756681 -10.66878081 1.65584388 -7 1 C-6.2678125 0.85949219 -5.535625 0.71898437 -4.78125 0.57421875 C-2.9375 0.25 -2.9375 0.25 0 0 Z " fill="#E5ECEF" transform="translate(80,8)"/>
<path d="M0 0 C1.98 0 3.96 0 6 0 C6 2.97 6 5.94 6 9 C4.0085944 9.38133299 2.00720923 9.71325582 0 10 C-0.33 9.67 -0.66 9.34 -1 9 C-0.91062197 7.47480724 -0.75462854 5.95318071 -0.5625 4.4375 C-0.46066406 3.61121094 -0.35882813 2.78492187 -0.25390625 1.93359375 C-0.17011719 1.29550781 -0.08632812 0.65742187 0 0 Z " fill="#824297" transform="translate(150,117)"/>
<path d="M0 0 C-0.44469329 5.03985731 -2.71343362 7.37634988 -6 11 C-6.99 10.34 -7.98 9.68 -9 9 C-9.1875 5.875 -9.1875 5.875 -9 3 C-3.375 0 -3.375 0 0 0 Z " fill="#108159" transform="translate(133,110)"/>
<path d="M0 0 C1.65 0 3.3 0 5 0 C4.04600922 1.79398267 3.08665974 3.58511655 2.125 5.375 C1.59132813 6.37273437 1.05765625 7.37046875 0.5078125 8.3984375 C-1 11 -1 11 -3 13 C-5.0625 12.8125 -5.0625 12.8125 -7 12 C-7.33 11.01 -7.66 10.02 -8 9 C-6 7 -6 7 -3.9375 6.5 C-3.298125 6.335 -2.65875 6.17 -2 6 C-1.67 5.34 -1.34 4.68 -1 4 C-0.34 4 0.32 4 1 4 C0.67 2.68 0.34 1.36 0 0 Z " fill="#CA99D2" transform="translate(33,143)"/>
<path d="M0 0 C0.12375 0.5775 0.2475 1.155 0.375 1.75 C0.89397708 4.02247257 0.89397708 4.02247257 2.15625 5.875 C3 8 3 8 2.3203125 10.140625 C1.92585938 10.83671875 1.53140625 11.5328125 1.125 12.25 C0.73570313 12.95640625 0.34640625 13.6628125 -0.0546875 14.390625 C-0.36664063 14.92171875 -0.67859375 15.4528125 -1 16 C-3.22603003 12.66095496 -3.84654881 10.98973099 -4 7 C-2.90172918 4.43221188 -1.54993488 2.34838619 0 0 Z " fill="#EC6712" transform="translate(69,101)"/>
<path d="M0 0 C-0.66 0 -1.32 0 -2 0 C-1.938125 1.11375 -1.87625 2.2275 -1.8125 3.375 C-1.874375 4.57125 -1.93625 5.7675 -2 7 C-5 9 -5 9 -8 9 C-8 5.7 -8 2.4 -8 -1 C-3.375 -2.25 -3.375 -2.25 0 0 Z " fill="#ADC8D4" transform="translate(187,144)"/>
<path d="M0 0 C0.66 0.33 1.32 0.66 2 1 C1.01 2.485 1.01 2.485 0 4 C0.99 4 1.98 4 3 4 C1.99382318 6.67576692 1.45785454 7.7785108 -1.1640625 9.046875 C-1.97617187 9.27890625 -2.78828125 9.5109375 -3.625 9.75 C-4.85089844 10.11351562 -4.85089844 10.11351562 -6.1015625 10.484375 C-7.04128906 10.73960937 -7.04128906 10.73960937 -8 11 C-6.46457536 6.52167812 -4.39145948 2.19572974 0 0 Z " fill="#4A3AA2" transform="translate(48,118)"/>
<path d="M0 0 C9.32110025 -0.63794602 16.464638 0.73453936 24.125 6.25 C24.74375 6.8275 25.3625 7.405 26 8 C20.07136283 6.83348574 14.61201606 5.24480642 9 3 C9 2.34 9 1.68 9 1 C6.03 1 3.06 1 0 1 C0 0.67 0 0.34 0 0 Z " fill="#DF6123" transform="translate(195,115)"/>
<path d="M0 0 C0.79921875 0.01804687 1.5984375 0.03609375 2.421875 0.0546875 C3.02515625 0.07789062 3.6284375 0.10109375 4.25 0.125 C4.25 0.785 4.25 1.445 4.25 2.125 C6.23 2.785 8.21 3.445 10.25 4.125 C6.60904939 5.3386502 4.00490714 5.00726213 0.1875 4.6875 C-4.27605894 4.2846782 -4.27605894 4.2846782 -8.75 4.125 C-8.75 3.465 -8.75 2.805 -8.75 2.125 C-5.68753253 0.34090198 -3.52920727 -0.10380021 0 0 Z " fill="#DE3A08" transform="translate(85.75,91.875)"/>
<path d="M0 0 C3.25696479 0.41755959 4.63443291 0.63443291 7 3 C6.66306057 6.36939433 5.11180592 8.42910583 3 11 C3 10.34 3 9.68 3 9 C2.34 8.67 1.68 8.34 1 8 C1.04125 7.21625 1.0825 6.4325 1.125 5.625 C1.28728734 2.83883881 1.28728734 2.83883881 -1 1 C-0.67 0.67 -0.34 0.34 0 0 Z " fill="#13B939" transform="translate(130,101)"/>
<path d="M0 0 C2.64 0.33 5.28 0.66 8 1 C8.33 1.99 8.66 2.98 9 4 C4.71 4.66 0.42 5.32 -4 6 C-4.33 5.01 -4.66 4.02 -5 3 C-3.35 2.67 -1.7 2.34 0 2 C0 1.34 0 0.68 0 0 Z " fill="#B561A7" transform="translate(43,133)"/>
<path d="M0 0 C0.33 0 0.66 0 1 0 C1.33 1.65 1.66 3.3 2 5 C2.99 5 3.98 5 5 5 C5 4.34 5 3.68 5 3 C5.99 2.67 6.98 2.34 8 2 C8.33 2.33 8.66 2.66 9 3 C9.66 2.34 10.32 1.68 11 1 C11.66 1.66 12.32 2.32 13 3 C11.02237345 4.16927543 9.04285742 5.33535573 7.0625 6.5 C5.40927734 7.47453125 5.40927734 7.47453125 3.72265625 8.46875 C1 10 1 10 0 10 C0 6.7 0 3.4 0 0 Z " fill="#D8E0EA" transform="translate(68,116)"/>
<path d="M0 0 C0.66 0 1.32 0 2 0 C2 2.97 2 5.94 2 9 C0.02 7.68 -1.96 6.36 -4 5 C-4 6.32 -4 7.64 -4 9 C-4.66 9 -5.32 9 -6 9 C-6 6.36 -6 3.72 -6 1 C-2.125 2.875 -2.125 2.875 -1 4 C-0.67 2.68 -0.34 1.36 0 0 Z " fill="#889094" transform="translate(141,143)"/>
<path d="M0 0 C1.134375 0.020625 2.26875 0.04125 3.4375 0.0625 C3.4375 0.7225 3.4375 1.3825 3.4375 2.0625 C1.4575 2.0625 -0.5225 2.0625 -2.5625 2.0625 C-2.5625 2.7225 -2.5625 3.3825 -2.5625 4.0625 C-0.9125 4.0625 0.7375 4.0625 2.4375 4.0625 C3 6 3 6 3.4375 8.0625 C2.4375 9.0625 2.4375 9.0625 -0.625 9.125 C-1.594375 9.104375 -2.56375 9.08375 -3.5625 9.0625 C-3.5625 8.7325 -3.5625 8.4025 -3.5625 8.0625 C-1.9125 8.0625 -0.2625 8.0625 1.4375 8.0625 C1.4375 7.4025 1.4375 6.7425 1.4375 6.0625 C-0.2125 5.7325 -1.8625 5.4025 -3.5625 5.0625 C-4.125 3.125 -4.125 3.125 -4.5625 1.0625 C-3.5625 0.0625 -3.5625 0.0625 0 0 Z " fill="#889095" transform="translate(210.5625,142.9375)"/>
<path d="M0 0 C1.32 0.33 2.64 0.66 4 1 C4.66 3.31 5.32 5.62 6 8 C3.69 8 1.38 8 -1 8 C-1.93065133 5.39417629 -2.14917407 4.35801776 -1.0625 1.75 C-0.711875 1.1725 -0.36125 0.595 0 0 Z " fill="#07B0A9" transform="translate(119,125)"/>
<path d="M0 0 C0.66 0 1.32 0 2 0 C2 2.97 2 5.94 2 9 C1.01 9 0.02 9 -1 9 C-2.6875 7 -2.6875 7 -4 5 C-4.66 6.32 -5.32 7.64 -6 9 C-6 6.36 -6 3.72 -6 1 C-4.35 1.99 -2.7 2.98 -1 4 C-0.67 2.68 -0.34 1.36 0 0 Z " fill="#899195" transform="translate(202,143)"/>
<path d="M0 0 C0.99 0 1.98 0 3 0 C2.875 2.75 2.875 2.75 2 6 C-0.9375 8.25 -0.9375 8.25 -4 10 C-4.66 10.66 -5.32 11.32 -6 12 C-6.33 11.01 -6.66 10.02 -7 9 C-5.671875 6.73828125 -5.671875 6.73828125 -3.75 4.3125 C-3.12609375 3.50425781 -2.5021875 2.69601563 -1.859375 1.86328125 C-1.24578125 1.24839844 -0.6321875 0.63351563 0 0 Z " fill="#C5E2F4" transform="translate(62,108)"/>
<path d="M0 0 C1.2065625 0.0309375 1.2065625 0.0309375 2.4375 0.0625 C2.1075 1.7125 1.7775 3.3625 1.4375 5.0625 C0.1175 5.3925 -1.2025 5.7225 -2.5625 6.0625 C-2.5625 6.7225 -2.5625 7.3825 -2.5625 8.0625 C-3.2225 7.7325 -3.8825 7.4025 -4.5625 7.0625 C-4.2325 6.4025 -3.9025 5.7425 -3.5625 5.0625 C-4.2225 5.0625 -4.8825 5.0625 -5.5625 5.0625 C-3.15007962 0.07683121 -3.15007962 0.07683121 0 0 Z " fill="#DB074E" transform="translate(97.5625,106.9375)"/>
<path d="M0 0 C2.31 0 4.62 0 7 0 C7 0.66 7 1.32 7 2 C8.32 2.66 9.64 3.32 11 4 C10.01 4 9.02 4 8 4 C8.33 5.65 8.66 7.3 9 9 C8.01 8.67 7.02 8.34 6 8 C6 7.01 6 6.02 6 5 C5.34 5 4.68 5 4 5 C4 4.01 4 3.02 4 2 C2.68 2 1.36 2 0 2 C0 1.34 0 0.68 0 0 Z " fill="#C7E1F4" transform="translate(144,88)"/>
<path d="M0 0 C0.66 0.66 1.32 1.32 2 2 C1 3 1 3 -1.5625 3.0625 C-2.7690625 3.0315625 -2.7690625 3.0315625 -4 3 C-3.67 4.32 -3.34 5.64 -3 7 C-3.66 7 -4.32 7 -5 7 C-5.66 8.32 -6.32 9.64 -7 11 C-7.99 11 -8.98 11 -10 11 C-9.67 9.35 -9.34 7.7 -9 6 C-8.34 6 -7.68 6 -7 6 C-6.773125 5.38125 -6.54625 4.7625 -6.3125 4.125 C-4.62070165 1.38589791 -3.00755839 0.94975528 0 0 Z " fill="#BC85CA" transform="translate(37,140)"/>
<path d="M0 0 C0.66 0.99 1.32 1.98 2 3 C2.99 3.66 3.98 4.32 5 5 C2.36 5.99 -0.28 6.98 -3 8 C-3.66 6.35 -4.32 4.7 -5 3 C-3.35 2.01 -1.7 1.02 0 0 Z " fill="#BE1370" transform="translate(73,123)"/>
<path d="M0 0 C1.175625 0.165 2.35125 0.33 3.5625 0.5 C7.41273873 0.98728512 11.12258073 1.08077957 15 1 C14.01 1.495 14.01 1.495 13 2 C13 2.66 13 3.32 13 4 C7.58461538 5.23076923 7.58461538 5.23076923 4.625 4.0625 C4.08875 3.711875 3.5525 3.36125 3 3 C2.01 3.66 1.02 4.32 0 5 C0 3.35 0 1.7 0 0 Z " fill="#C7CED3" transform="translate(213,121)"/>
<path d="M0 0 C0 0.66 0 1.32 0 2 C0.66 2.33 1.32 2.66 2 3 C0.02 3 -1.96 3 -4 3 C-4 3.66 -4 4.32 -4 5 C-3.34 5.66 -2.68 6.32 -2 7 C-8.75 7.125 -8.75 7.125 -11 6 C-11 5.34 -11 4.68 -11 4 C-9.5437455 3.32880451 -8.08492133 2.66318193 -6.625 2 C-5.81289062 1.62875 -5.00078125 1.2575 -4.1640625 0.875 C-2 0 -2 0 0 0 Z " fill="#E0E5E0" transform="translate(82,126)"/>
<path d="M0 0 C0.66 0.33 1.32 0.66 2 1 C2.59772099 3.9829661 2.74337815 6.96330805 3 10 C-0.63 10 -4.26 10 -8 10 C-6.68 9.34 -5.36 8.68 -4 8 C-2.83046584 5.57616923 -2.83046584 5.57616923 -2 3 C-1.34 2.01 -0.68 1.02 0 0 Z " fill="#B6D3E3" transform="translate(195,143)"/>
<path d="M0 0 C1.485 0.99 1.485 0.99 3 2 C5.28397032 1.65394389 6.93409037 1.03295481 9 0 C9 2.64 9 5.28 9 8 C8.34 8 7.68 8 7 8 C6.67 7.01 6.34 6.02 6 5 C5.01 5 4.02 5 3 5 C2.67 4.67 2.34 4.34 2 4 C1.34 5.32 0.68 6.64 0 8 C0 5.36 0 2.72 0 0 Z " fill="#85898D" transform="translate(113,144)"/>
<path d="M0 0 C-0.1875 3.3125 -0.1875 3.3125 -1 7 C-3.5625 8.9375 -3.5625 8.9375 -6 10 C-6.33 9.01 -6.66 8.02 -7 7 C-6.34 7 -5.68 7 -5 7 C-5 6.34 -5 5.68 -5 5 C-5.66 4.67 -6.32 4.34 -7 4 C-2.25 0 -2.25 0 0 0 Z " fill="#0F9F9D" transform="translate(135,119)"/>
<path d="M0 0 C3.125 -0.1875 3.125 -0.1875 6 0 C6.33 0.99 6.66 1.98 7 3 C5.35 4.65 3.7 6.3 2 8 C2 6.68 2 5.36 2 4 C0.68 3.67 -0.64 3.34 -2 3 C-1.34 2.01 -0.68 1.02 0 0 Z " fill="#2856AE" transform="translate(54,108)"/>
<path d="M0 0 C1.0725 0.00515625 2.145 0.0103125 3.25 0.015625 C4.85875 0.00789063 4.85875 0.00789063 6.5 0 C9.25 0.265625 9.25 0.265625 11.25 2.265625 C9.27 2.265625 7.29 2.265625 5.25 2.265625 C4.92 3.255625 4.59 4.245625 4.25 5.265625 C3.26 4.935625 2.27 4.605625 1.25 4.265625 C1.25 3.605625 1.25 2.945625 1.25 2.265625 C-0.73 2.265625 -2.71 2.265625 -4.75 2.265625 C-2.75 0.265625 -2.75 0.265625 0 0 Z " fill="#CEDEE9" transform="translate(86.75,96.734375)"/>
<path d="M0 0 C0.66 0 1.32 0 2 0 C3.06775224 1.96466413 4.06553465 3.96855359 5 6 C4.67 6.66 4.34 7.32 4 8 C1.69 8 -0.62 8 -3 8 C-1.125 2.25 -1.125 2.25 0 0 Z " fill="#8A9397" transform="translate(164,144)"/>
<path d="M0 0 C-0.99 1.98 -1.98 3.96 -3 6 C-4.32 5.67 -5.64 5.34 -7 5 C-7.33 3.68 -7.66 2.36 -8 1 C-4.93251126 -0.86240388 -3.40254489 -1.2151946 0 0 Z " fill="#9E1E77" transform="translate(169,114)"/>
<path d="M0 0 C0.66 0.33 1.32 0.66 2 1 C1.67 1.99 1.34 2.98 1 4 C1.66 4 2.32 4 3 4 C2.67 4.99 2.34 5.98 2 7 C0.68 7 -0.64 7 -2 7 C-2.66 8.32 -3.32 9.64 -4 11 C-3.91291331 9.54054712 -3.80473093 8.08234132 -3.6875 6.625 C-3.62949219 5.81289062 -3.57148437 5.00078125 -3.51171875 4.1640625 C-3 2 -3 2 0 0 Z " fill="#C0E1F5" transform="translate(103,73)"/>
<path d="M0 0 C-3.69172595 3.53790403 -7.09390595 3.59115883 -12 4 C-11 1 -11 1 -9.375 -0.25 C-6.04805845 -1.30061312 -3.37991551 -0.64998375 0 0 Z " fill="#F6BD05" transform="translate(93,131)"/>
<path d="M0 0 C1.65 0 3.3 0 5 0 C5 1.32 5 2.64 5 4 C2.35261084 5.4606285 1.10551666 6 -2 6 C-1.34 4.02 -0.68 2.04 0 0 Z " fill="#A1BA0C" transform="translate(103,120)"/>
<path d="M0 0 C2.64 0 5.28 0 8 0 C8 0.66 8 1.32 8 2 C7.01 2 6.02 2 5 2 C5 4.64 5 7.28 5 10 C4.34 10 3.68 10 3 10 C3 7.36 3 4.72 3 2 C2.01 2 1.02 2 0 2 C0 1.34 0 0.68 0 0 Z " fill="#8E979D" transform="translate(169,143)"/>
<path d="M0 0 C1 2 2 4 3 6 C-0.40646524 9.0279691 -1.0180495 9 -6 9 C-4.02 6.03 -2.04 3.06 0 0 Z " fill="#CFE2F3" transform="translate(54,118)"/>
<path d="M0 0 C2.875 -0.125 2.875 -0.125 6 0 C8 2 8 2 8.125 5.125 C8.08375 6.07375 8.0425 7.0225 8 8 C7.67 6.68 7.34 5.36 7 4 C5.02 4 3.04 4 1 4 C0.67 2.68 0.34 1.36 0 0 Z " fill="#E51074" transform="translate(178,109)"/>
<path d="M0 0 C1.485 0.99 1.485 0.99 3 2 C5.28397032 1.65394389 6.93409037 1.03295481 9 0 C9 2.64 9 5.28 9 8 C8.34 6.68 7.68 5.36 7 4 C6.01 4.66 5.02 5.32 4 6 C3.34 5.34 2.68 4.68 2 4 C1.34 5.32 0.68 6.64 0 8 C0 5.36 0 2.72 0 0 Z " fill="#7F8384" transform="translate(101,144)"/>
<path d="M0 0 C0.33 0.66 0.66 1.32 1 2 C0.67 2.66 0.34 3.32 0 4 C0.99 4.33 1.98 4.66 3 5 C0.47946405 6.26026798 -0.8542098 5.91874445 -3.625 5.5625 C-4.85089844 5.40974609 -4.85089844 5.40974609 -6.1015625 5.25390625 C-7.04128906 5.12822266 -7.04128906 5.12822266 -8 5 C-5.44008376 2.98863724 -2.95409701 1.37154504 0 0 Z " fill="#DCBD18" transform="translate(94,125)"/>
<path d="M0 0 C1.2065625 0.0309375 1.2065625 0.0309375 2.4375 0.0625 C2.4375 1.7125 2.4375 3.3625 2.4375 5.0625 C0.7875 5.3925 -0.8625 5.7225 -2.5625 6.0625 C-2.94468767 4.40635343 -3.27645102 2.73792976 -3.5625 1.0625 C-2.5625 0.0625 -2.5625 0.0625 0 0 Z " fill="#0783BD" transform="translate(153.5625,111.9375)"/>
<path d="M0 0 C2.625 0.375 2.625 0.375 5 1 C3.02 1.99 3.02 1.99 1 3 C1 4.32 1 5.64 1 7 C2.32 7 3.64 7 5 7 C5 7.66 5 8.32 5 9 C2.625 9.125 2.625 9.125 0 9 C-2 7 -2 7 -2.25 4.5 C-2 2 -2 2 0 0 Z " fill="#878E93" transform="translate(152,143)"/>
<path d="M0 0 C0.763125 0.20625 1.52625 0.4125 2.3125 0.625 C2.6425 1.615 2.9725 2.605 3.3125 3.625 C1.0025 3.955 -1.3075 4.285 -3.6875 4.625 C-4.3475 3.635 -5.0075 2.645 -5.6875 1.625 C-2.6875 -0.375 -2.6875 -0.375 0 0 Z " fill="#BD2B85" transform="translate(64.6875,128.375)"/>
<path d="M0 0 C-0.33 2.31 -0.66 4.62 -1 7 C-1.99 6.34 -2.98 5.68 -4 5 C-7.63939932 5.31730524 -7.63939932 5.31730524 -11 6 C-8.24029211 2.78034079 -4.3526723 0 0 0 Z " fill="#E5E3EA" transform="translate(180,113)"/>
<path d="M0 0 C0.33 1.32 0.66 2.64 1 4 C-0.32 4 -1.64 4 -3 4 C-3.433125 5.2065625 -3.433125 5.2065625 -3.875 6.4375 C-5 9 -5 9 -7 10 C-7.66 9.34 -8.32 8.68 -9 8 C-7.87811441 6.85111717 -6.75238316 5.70598863 -5.625 4.5625 C-4.99851562 3.92441406 -4.37203125 3.28632812 -3.7265625 2.62890625 C-2 1 -2 1 0 0 Z " fill="#BFD9E6" transform="translate(81,99)"/>
<path d="M0 0 C3.3 0 6.6 0 10 0 C7.72204978 2.27795022 6.06212707 3.05219877 3 4 C0.6875 3.625 0.6875 3.625 -1 3 C-0.67 2.01 -0.34 1.02 0 0 Z " fill="#D3DCDE" transform="translate(229,235)"/>
<path d="M0 0 C-0.60698743 4.12751449 -2.03810791 7.3321148 -4 11 C-4.99 11 -5.98 11 -7 11 C-7 10.34 -7 9.68 -7 9 C-6.34 9 -5.68 9 -5 9 C-3.99782936 5.41672247 -3.99782936 5.41672247 -5 2 C-2 0 -2 0 0 0 Z " fill="#C9E9E5" transform="translate(124,114)"/>
<path d="M0 0 C0.99 0.33 1.98 0.66 3 1 C3.33 1.99 3.66 2.98 4 4 C2.68 4.99 1.36 5.98 0 7 C-2 5 -2 5 -3 2 C-2.01 1.34 -1.02 0.68 0 0 Z " fill="#0FB3C8" transform="translate(142,112)"/>
<path d="M0 0 C1.98 0.495 1.98 0.495 4 1 C3.67 2.65 3.34 4.3 3 6 C1.68 5.67 0.36 5.34 -1 5 C-0.67 3.35 -0.34 1.7 0 0 Z " fill="#C0E6F7" transform="translate(187,145)"/>
<path d="M0 0 C1.98 0.495 1.98 0.495 4 1 C3.67 2.65 3.34 4.3 3 6 C1.68 5.67 0.36 5.34 -1 5 C-0.67 3.35 -0.34 1.7 0 0 Z " fill="#DCEDF8" transform="translate(92,145)"/>
<path d="M0 0 C2.25 1.5625 2.25 1.5625 4 3 C0.8125 3.75 0.8125 3.75 -3 4 C-5.9375 2.0625 -5.9375 2.0625 -8 0 C-4.94073669 -0.98333463 -3.02541902 -1.13453213 0 0 Z " fill="#C675B2" transform="translate(55,133)"/>
<path d="M0 0 C1.65 0 3.3 0 5 0 C5.66 1.32 6.32 2.64 7 4 C4.36 4.33 1.72 4.66 -1 5 C-0.67 3.35 -0.34 1.7 0 0 Z " fill="#05BFEB" transform="translate(149,108)"/>
<path d="M0 0 C1.41623216 -0.05447047 2.83308191 -0.09300508 4.25 -0.125 C5.03890625 -0.14820312 5.8278125 -0.17140625 6.640625 -0.1953125 C9.20731941 0.0171622 10.7916067 0.71345895 13 2 C13 2.99 13 3.98 13 5 C11.02 4.34 9.04 3.68 7 3 C7 2.34 7 1.68 7 1 C4.69 1 2.38 1 0 1 C0 0.67 0 0.34 0 0 Z " fill="#E43040" transform="translate(83,91)"/>
<path d="M0 0 C0 3 0 3 -1 7 C-5.455 5.02 -5.455 5.02 -10 3 C-10 2.67 -10 2.34 -10 2 C-8.72125 2.04125 -7.4425 2.0825 -6.125 2.125 C-3.98128508 2.24212873 -3.98128508 2.24212873 -2 2 C-1.34 1.34 -0.68 0.68 0 0 Z " fill="#C7DBE7" transform="translate(221,115)"/>
<path d="M0 0 C1.65 0 3.3 0 5 0 C5 1.65 5 3.3 5 5 C3.35 5 1.7 5 0 5 C0 3.35 0 1.7 0 0 Z " fill="#CA2334" transform="translate(180,113)"/>
<path d="M0 0 C0 0.66 0 1.32 0 2 C-1.65 2 -3.3 2 -5 2 C-5 3.32 -5 4.64 -5 6 C-6.65 6 -8.3 6 -10 6 C-8.94901234 3.13367003 -8.33137046 2.16993357 -5.5625 0.75 C-3 0 -3 0 0 0 Z " fill="#724FAE" transform="translate(48,126)"/>
<path d="M0 0 C2.97 0.495 2.97 0.495 6 1 C6 2.32 6 3.64 6 5 C4.35 5 2.7 5 1 5 C0.67 3.35 0.34 1.7 0 0 Z " fill="#DA4E14" transform="translate(179,117)"/>
<path d="M0 0 C0.99 0.33 1.98 0.66 3 1 C2.67 1.99 2.34 2.98 2 4 C2 4.99 2 5.98 2 7 C1.01 7.33 0.02 7.66 -1 8 C-1.66 7.34 -2.32 6.68 -3 6 C-2.01 4.02 -1.02 2.04 0 0 Z " fill="#CB075D" transform="translate(84,116)"/>
<path d="M0 0 C0.99 1.32 1.98 2.64 3 4 C0.94766315 6.2477975 -0.00667261 7.0022242 -3 8 C-2.814375 7.21625 -2.62875 6.4325 -2.4375 5.625 C-1.74037734 3.02910225 -1.74037734 3.02910225 -3 1 C-2.01 0.67 -1.02 0.34 0 0 Z " fill="#B5187C" transform="translate(170,111)"/>
<path d="M0 0 C2 3 2 3 3 6 C1.35 6.66 -0.3 7.32 -2 8 C-2.125 5.125 -2.125 5.125 -2 2 C-1.34 1.34 -0.68 0.68 0 0 Z " fill="#2DB906" transform="translate(122,107)"/>
<path d="M0 0 C1.65 0.33 3.3 0.66 5 1 C4.67 2.32 4.34 3.64 4 5 C2.35 4.67 0.7 4.34 -1 4 C-0.67 2.68 -0.34 1.36 0 0 Z " fill="#C00364" transform="translate(75,122)"/>
<path d="M0 0 C1.98 0 3.96 0 6 0 C5.67 1.65 5.34 3.3 5 5 C3.35 5 1.7 5 0 5 C0 3.35 0 1.7 0 0 Z " fill="#4A5BA8" transform="translate(150,117)"/>
<path d="M0 0 C-0.33 1.32 -0.66 2.64 -1 4 C-2.98 4 -4.96 4 -7 4 C-6.67 3.01 -6.34 2.02 -6 1 C-4 0 -4 0 0 0 Z " fill="#B6D8EF" transform="translate(112,92)"/>
<path d="M0 0 C2.125 0.375 2.125 0.375 4 1 C0.44360764 3.30119506 -2.94718288 4.77472971 -7 6 C-7 4.68 -7 3.36 -7 2 C-6.21625 2.04125 -5.4325 2.0825 -4.625 2.125 C-1.83883881 2.28728734 -1.83883881 2.28728734 0 0 Z " fill="#C7E4F4" transform="translate(7,82)"/>
<path d="M0 0 C0.66 0.33 1.32 0.66 2 1 C1.360625 1.28875 0.72125 1.5775 0.0625 1.875 C-2.15206079 2.82823451 -2.15206079 2.82823451 -3 5 C-2.34 5.33 -1.68 5.66 -1 6 C-2 7 -2 7 -3.84765625 7.09765625 C-5.8984375 7.06510417 -7.94921875 7.03255208 -10 7 C-10 6.67 -10 6.34 -10 6 C-8.824375 5.87625 -8.824375 5.87625 -7.625 5.75 C-4.8553382 5.29150599 -4.8553382 5.29150599 -3.875 3 C-3.441875 2.01 -3.441875 2.01 -3 1 C-2.01 0.67 -1.02 0.34 0 0 Z " fill="#F5C646" transform="translate(84,130)"/>
<path d="M0 0 C2 3 2 3 3 6 C1.35 6.33 -0.3 6.66 -2 7 C-2.125 4.625 -2.125 4.625 -2 2 C-1.34 1.34 -0.68 0.68 0 0 Z " fill="#68BA0F" transform="translate(115,112)"/>
<path d="M0 0 C-0.33 1.32 -0.66 2.64 -1 4 C-3.64 4 -6.28 4 -9 4 C-6.19632015 0.92930303 -4.26207314 0 0 0 Z " fill="#067C37" transform="translate(133,110)"/>
<path d="M0 0 C1.95418308 2.93127462 2.64700993 4.55834679 3 8 C2.34 8.66 1.68 9.32 1 10 C1 9.01 1 8.02 1 7 C-0.32 6.67 -1.64 6.34 -3 6 C-2.01 4.02 -1.02 2.04 0 0 Z " fill="#E01250" transform="translate(99,100)"/>
<path d="M0 0 C0.99 0.33 1.98 0.66 3 1 C2.34 2.32 1.68 3.64 1 5 C-0.65 5 -2.3 5 -4 5 C-4 4.34 -4 3.68 -4 3 C-2.1875 1.3125 -2.1875 1.3125 0 0 Z " fill="#EAF7FD" transform="translate(91,75)"/>
<path d="M0 0 C0.66 0.33 1.32 0.66 2 1 C1.67 3.64 1.34 6.28 1 9 C-0.65 9 -2.3 9 -4 9 C-2.80100302 5.9168649 -1.52299523 2.93720508 0 0 Z " fill="#CCDEEA" transform="translate(100,143)"/>
<path d="M0 0 C-0.66 1.32 -1.32 2.64 -2 4 C-2.33 3.34 -2.66 2.68 -3 2 C-4.32 2.33 -5.64 2.66 -7 3 C-7 2.01 -7 1.02 -7 0 C-3.86650268 -1.04449911 -3.01031744 -0.93423645 0 0 Z " fill="#0D55AD" transform="translate(63,106)"/>
<path d="M0 0 C0.99 0.33 1.98 0.66 3 1 C3 1.66 3 2.32 3 3 C3.66 3 4.32 3 5 3 C5.33 2.34 5.66 1.68 6 1 C6 1.99 6 2.98 6 4 C0.25 4.125 0.25 4.125 -2 3 C-2 2.34 -2 1.68 -2 1 C-1.34 0.67 -0.68 0.34 0 0 Z " fill="#D2DBDD" transform="translate(209,235)"/>
<path d="M0 0 C0.33 0.66 0.66 1.32 1 2 C1.66 2 2.32 2 3 2 C3.66 3.32 4.32 4.64 5 6 C4.01 6.495 4.01 6.495 3 7 C3 6.34 3 5.68 3 5 C1.35 5.33 -0.3 5.66 -2 6 C-1.34 4.02 -0.68 2.04 0 0 Z " fill="#A173C0" transform="translate(35,134)"/>
<path d="M0 0 C0.66 0 1.32 0 2 0 C2 1.98 2 3.96 2 6 C2.66 6 3.32 6 4 6 C4 6.66 4 7.32 4 8 C2.68 7.67 1.36 7.34 0 7 C0 4.69 0 2.38 0 0 Z " fill="#BED7E3" transform="translate(126,143)"/>
<path d="M0 0 C3.63 0.33 7.26 0.66 11 1 C11 1.33 11 1.66 11 2 C5.06 2.495 5.06 2.495 -1 3 C-0.67 2.01 -0.34 1.02 0 0 Z " fill="#CB5624" transform="translate(82,95)"/>
<path d="M0 0 C0.66 0 1.32 0 2 0 C2 2.31 2 4.62 2 7 C1.01 6.67 0.02 6.34 -1 6 C-1.042721 4.33388095 -1.04063832 2.66617115 -1 1 C-0.67 0.67 -0.34 0.34 0 0 Z " fill="#C6E5F7" transform="translate(129,143)"/>
<path d="M0 0 C1.98 0.495 1.98 0.495 4 1 C3.34 2.32 2.68 3.64 2 5 C1.01 5 0.02 5 -1 5 C-0.67 3.35 -0.34 1.7 0 0 Z " fill="#1BB8B8" transform="translate(118,127)"/>
<path d="M0 0 C0 0.66 0 1.32 0 2 C0.66 2 1.32 2 2 2 C1.67 2.99 1.34 3.98 1 5 C0.5875 4.54625 0.175 4.0925 -0.25 3.625 C-2.06408095 1.94049626 -3.75285627 1.00734029 -6 0 C-3 -1 -3 -1 0 0 Z " fill="#8A2F79" transform="translate(162,117)"/>
<path d="M0 0 C0.99 0.33 1.98 0.66 3 1 C3.33 2.65 3.66 4.3 4 6 C3.01 6 2.02 6 1 6 C0 5 0 5 -0.0625 2.4375 C-0.041875 1.633125 -0.02125 0.82875 0 0 Z " fill="#058762" transform="translate(124,114)"/>
<path d="M0 0 C1.32 0.99 2.64 1.98 4 3 C1 5 1 5 -2 5 C-1.125 1.125 -1.125 1.125 0 0 Z " fill="#E4F4F8" transform="translate(103,115)"/>
<path d="M0 0 C1.9375 0.3125 1.9375 0.3125 4 1 C4.33 1.99 4.66 2.98 5 4 C4.01 4.66 3.02 5.32 2 6 C0 3 0 3 0 0 Z " fill="#05B905" transform="translate(123,107)"/>
<path d="M0 0 C2.475 0.495 2.475 0.495 5 1 C5.33 2.32 5.66 3.64 6 5 C3.5625 4.1875 3.5625 4.1875 1 3 C0.67 2.01 0.34 1.02 0 0 Z " fill="#F9B44F" transform="translate(68,131)"/>
<path d="M0 0 C1.32 0.66 2.64 1.32 4 2 C3.01 2.66 2.02 3.32 1 4 C-0.19232613 6.05003955 -0.19232613 6.05003955 -1 8 C-1.04241723 5.66705225 -1.04092937 3.33297433 -1 1 C-0.67 0.67 -0.34 0.34 0 0 Z " fill="#CADDE7" transform="translate(208,119)"/>
<path d="M0 0 C1.32 1.65 2.64 3.3 4 5 C3.01 5.66 2.02 6.32 1 7 C1 6.34 1 5.68 1 5 C0.34 5 -0.32 5 -1 5 C-0.67 3.35 -0.34 1.7 0 0 Z " fill="#09927A" transform="translate(123,117)"/>
<path d="M0 0 C2.125 0.375 2.125 0.375 4 1 C3.67 2.32 3.34 3.64 3 5 C3 4.34 3 3.68 3 3 C2.34 3 1.68 3 1 3 C0.67 3.66 0.34 4.32 0 5 C-0.66 4.01 -1.32 3.02 -2 2 C-1.34 1.34 -0.68 0.68 0 0 Z " fill="#2948A7" transform="translate(52,111)"/>
<path d="M0 0 C1.125 1.75 1.125 1.75 2 4 C1.125 6.25 1.125 6.25 0 8 C-2 5 -2 5 -2 1 C-1.34 0.67 -0.68 0.34 0 0 Z " fill="#F26908" transform="translate(68,109)"/>
<path d="M0 0 C0.66 0 1.32 0 2 0 C0.125 4.75 0.125 4.75 -1 7 C-1.99 6.67 -2.98 6.34 -4 6 C-2.7260411 3.96166576 -1.38938077 1.96147874 0 0 Z " fill="#BDDAE7" transform="translate(67,101)"/>
</svg>
